<?xml version="1.0" encoding="UTF-8" standalone="no"?>
<!-- Created with Inkscape (http://www.inkscape.org/) -->

<svg
   width="3.9196262in"
   height="4.5980759in"
   viewBox="0 0 3.9196262 4.5980759"
   version="1.1"
   id="SVGRoot"
   sodipodi:docname="small_abs.svg"
   inkscape:version="1.1.2 (0a00cf5339, 2022-02-04)"
   xmlns:inkscape="http://www.inkscape.org/namespaces/inkscape"
   xmlns:sodipodi="http://sodipodi.sourceforge.net/DTD/sodipodi-0.dtd"
   xmlns:xlink="http://www.w3.org/1999/xlink"
   xmlns="http://www.w3.org/2000/svg"
   xmlns:svg="http://www.w3.org/2000/svg">
  <sodipodi:namedview
     id="namedview1194"
     pagecolor="#ffffff"
     bordercolor="#666666"
     borderopacity="1.0"
     inkscape:pageshadow="2"
     inkscape:pageopacity="0.0"
     inkscape:pagecheckerboard="0"
     inkscape:document-units="in"
     showgrid="false"
     inkscape:zoom="1.3273709"
     inkscape:cx="93.041061"
     inkscape:cy="373.2943"
     inkscape:window-width="1495"
     inkscape:window-height="970"
     inkscape:window-x="2345"
     inkscape:window-y="56"
     inkscape:window-maximized="0"
     inkscape:current-layer="layer1" />
  <defs
     id="defs1189">
    <clipPath
       clipPathUnits="userSpaceOnUse"
       id="clipPath2">
      <path
         d="M 0,162 H 18 V 0 H 0 Z"
         id="path6" />
    </clipPath>
    <linearGradient
       id="SVGID_Fill1_"
       gradientUnits="userSpaceOnUse"
       x1="5655.1392"
       y1="3654.4158"
       x2="5655.1392"
       y2="847.5343"
       gradientTransform="matrix(8.9862561e-4,0,0,0.00134795,4.8238829,2.7190801)">
      <stop
         offset="0"
         stop-color="#FFFFFF"
         stop-opacity="0.498039"
         id="stop4" />
      <stop
         offset="0.56937152"
         stop-color="#7F7F7F"
         stop-opacity="0.25098"
         id="stop6" />
      <stop
         offset="1"
         stop-color="#000000"
         stop-opacity="0"
         id="stop8" />
    </linearGradient>
  </defs>
  <g
     inkscape:label="Layer 1"
     inkscape:groupmode="layer"
     id="layer1"
     transform="translate(-4.9413571,-3.5487444)">
    <image
       x="4.8238816"
       y="2.1484036"
       width="4.406754"
       height="6.6057281"
       xlink:href="abs_files/image0.jpg"
       id="image2" />
    <rect
       x="4.8238816"
       y="2.1484027"
       fill="url(#SVGID_Fill1_)"
       stroke-width="0.000220118"
       stroke-linejoin="round"
       width="4.4023519"
       height="6.6035275"
       id="rect11"
       style="fill:url(#SVGID_Fill1_);fill-opacity:1" />
    <g
       id="g119"
       transform="matrix(0.00110059,0,0,0.00110059,4.823883,2.71908)">
      <path
         fill="none"
         fill-rule="evenodd"
         stroke-width="0.5"
         stroke-linejoin="round"
         stroke="#00ff00"
         stroke-opacity="1"
         d="m 873.053,2476.38 360.697,-0.76 19.55,-82.1 -340.938,0.72 z"
         id="path13" />
      <path
         fill="none"
         fill-rule="evenodd"
         stroke-width="0.5"
         stroke-linejoin="round"
         stroke="#00ff00"
         stroke-opacity="1"
         d="m 1233.75,2475.62 315.82,-0.67 0.71,-82.05 -296.98,0.62 z"
         id="path15" />
      <path
         fill="none"
         fill-rule="evenodd"
         stroke-width="0.5"
         stroke-linejoin="round"
         stroke="#00ff00"
         stroke-opacity="1"
         d="m 1549.57,2474.95 257.19,-0.54 -22.51,-82 -233.97,0.49 z"
         id="path17" />
      <path
         fill="none"
         fill-rule="evenodd"
         stroke-width="0.5"
         stroke-linejoin="round"
         stroke="#00ff00"
         stroke-opacity="1"
         d="m 1806.76,2474.41 291.01,-0.61 -48.46,-81.95 -265.06,0.56 z"
         id="path19" />
      <path
         fill="none"
         fill-rule="evenodd"
         stroke-width="0.5"
         stroke-linejoin="round"
         stroke="#00ff00"
         stroke-opacity="1"
         d="m 2097.77,2473.8 231.02,-0.65 -94.5,-81.88 -184.98,0.58 z"
         id="path21" />
      <path
         fill="none"
         fill-rule="evenodd"
         stroke-width="0.5"
         stroke-linejoin="round"
         stroke="#00ff00"
         stroke-opacity="1"
         d="m 455.963,2477.05 417.09,-0.67 39.309,-82.14 -458.601,0.66 z"
         id="path23" />
      <path
         fill="none"
         fill-rule="evenodd"
         stroke-width="2"
         stroke-linejoin="round"
         stroke="#00ff00"
         stroke-opacity="1"
         d="m 814.608,2598.5 390.072,-0.82 29.07,-122.06 -360.697,0.76 z"
         id="path25" />
      <path
         fill="none"
         fill-rule="evenodd"
         stroke-width="2"
         stroke-linejoin="round"
         stroke="#00ff00"
         stroke-opacity="1"
         d="m 1204.68,2597.68 343.84,-0.73 1.05,-122 -315.82,0.67 z"
         id="path27" />
      <path
         fill="none"
         fill-rule="evenodd"
         stroke-width="2"
         stroke-linejoin="round"
         stroke="#00ff00"
         stroke-opacity="1"
         d="m 1548.52,2596.95 291.71,-0.61 -33.47,-121.93 -257.19,0.54 z"
         id="path29" />
      <path
         fill="none"
         fill-rule="evenodd"
         stroke-width="2"
         stroke-linejoin="round"
         stroke="#00ff00"
         stroke-opacity="1"
         d="m 1840.23,2596.34 329.59,-0.7 -72.05,-121.84 -291.01,0.61 z"
         id="path31" />
      <path
         fill="none"
         fill-rule="evenodd"
         stroke-width="2"
         stroke-linejoin="round"
         stroke="#00ff00"
         stroke-opacity="1"
         d="m 2169.82,2595.64 288.12,-0.76 -131.15,-121.73 -229.02,0.65 z"
         id="path33" />
      <path
         fill="none"
         fill-rule="evenodd"
         stroke-width="2"
         stroke-linejoin="round"
         stroke="#00ff00"
         stroke-opacity="1"
         d="m 454.896,2599.19 359.712,-0.69 58.445,-122.12 -417.09,0.67 z"
         id="path35" />
      <path
         fill="none"
         fill-rule="evenodd"
         stroke-width="5"
         stroke-linejoin="round"
         stroke="#00ff00"
         stroke-opacity="1"
         d="m 749.454,2734.64 422.816,-0.9 32.41,-136.06 -390.072,0.82 z"
         id="path37" />
      <path
         fill="none"
         fill-rule="evenodd"
         stroke-width="5"
         stroke-linejoin="round"
         stroke="#00ff00"
         stroke-opacity="1"
         d="m 1172.27,2733.74 375.08,-0.79 1.17,-136 -343.84,0.73 z"
         id="path39" />
      <path
         fill="none"
         fill-rule="evenodd"
         stroke-width="5"
         stroke-linejoin="round"
         stroke="#00ff00"
         stroke-opacity="1"
         d="m 1547.35,2732.95 330.19,-0.69 -37.31,-135.92 -291.71,0.61 z"
         id="path41" />
      <path
         fill="none"
         fill-rule="evenodd"
         stroke-width="5"
         stroke-linejoin="round"
         stroke="#00ff00"
         stroke-opacity="1"
         d="m 1877.54,2732.26 372.59,-0.79 -80.31,-135.83 -329.59,0.7 z"
         id="path43" />
      <path
         fill="none"
         fill-rule="evenodd"
         stroke-width="5"
         stroke-linejoin="round"
         stroke="#00ff00"
         stroke-opacity="1"
         d="m 2250.13,2731.47 380.22,-0.88 -172.41,-135.71 -288.12,0.76 z"
         id="path45" />
      <path
         fill="none"
         fill-rule="evenodd"
         stroke-width="5"
         stroke-linejoin="round"
         stroke="#00ff00"
         stroke-opacity="1"
         d="m 405.672,2735.36 343.782,-0.72 65.154,-136.14 -359.712,0.7 z"
         id="path47" />
      <path
         fill="none"
         fill-rule="evenodd"
         stroke-width="10"
         stroke-linejoin="round"
         stroke="#00ff00"
         stroke-opacity="1"
         d="m 655.555,2930.84 470.015,-0.99 46.7,-196.11 -422.816,0.9 z"
         id="path49" />
      <path
         fill="none"
         fill-rule="evenodd"
         stroke-width="10"
         stroke-linejoin="round"
         stroke="#00ff00"
         stroke-opacity="1"
         d="m 1125.57,2929.85 420.09,-0.89 1.69,-196.01 -375.08,0.79 z"
         id="path51" />
      <path
         fill="none"
         fill-rule="evenodd"
         stroke-width="10"
         stroke-linejoin="round"
         stroke="#00ff00"
         stroke-opacity="1"
         d="m 1545.66,2928.96 385.66,-0.81 -53.78,-195.89 -330.19,0.69 z"
         id="path53" />
      <path
         fill="none"
         fill-rule="evenodd"
         stroke-width="10"
         stroke-linejoin="round"
         stroke="#00ff00"
         stroke-opacity="1"
         d="m 1931.32,2928.15 434.57,-0.92 -115.76,-195.76 -372.59,0.79 z"
         id="path55" />
      <path
         fill="none"
         fill-rule="evenodd"
         stroke-width="10"
         stroke-linejoin="round"
         stroke="#00ff00"
         stroke-opacity="1"
         d="m 2365.89,2927.23 486.92,-1.06 -222.46,-195.58 -380.22,0.88 z"
         id="path57" />
      <path
         fill="none"
         fill-rule="evenodd"
         stroke-width="20"
         stroke-linejoin="round"
         stroke="#00ff00"
         stroke-opacity="1"
         d="m 537.447,3177.62 529.353,-1.04 58.77,-246.73 -470.015,0.99 z"
         id="path59" />
      <path
         fill="none"
         fill-rule="evenodd"
         stroke-width="20"
         stroke-linejoin="round"
         stroke="#00ff00"
         stroke-opacity="1"
         d="m 1066.8,3176.58 476.73,-0.94 2.13,-246.68 -420.09,0.89 z"
         id="path61" />
      <path
         fill="none"
         fill-rule="evenodd"
         stroke-width="20"
         stroke-linejoin="round"
         stroke="#00ff00"
         stroke-opacity="1"
         d="m 1543.53,3175.64 455.48,-0.9 -67.69,-246.59 -385.66,0.81 z"
         id="path63" />
      <path
         fill="none"
         fill-rule="evenodd"
         stroke-width="20"
         stroke-linejoin="round"
         stroke="#00ff00"
         stroke-opacity="1"
         d="m 1999.01,3174.74 512.62,-1.01 -145.74,-246.5 -434.57,0.92 z"
         id="path65" />
      <path
         fill="none"
         fill-rule="evenodd"
         stroke-width="35"
         stroke-linejoin="round"
         stroke="#00ff00"
         stroke-opacity="1"
         d="m 395.9,3473.38 600.516,-1.26 70.384,-295.54 -529.353,1.04 z"
         id="path67" />
      <path
         fill="none"
         fill-rule="evenodd"
         stroke-width="35"
         stroke-linejoin="round"
         stroke="#00ff00"
         stroke-opacity="1"
         d="m 996.416,3472.12 544.574,-1.15 2.54,-295.33 -476.73,0.94 z"
         id="path69" />
      <path
         fill="none"
         fill-rule="evenodd"
         stroke-width="35"
         stroke-linejoin="round"
         stroke="#00ff00"
         stroke-opacity="1"
         d="m 1540.99,3470.97 539.03,-1.14 -81.01,-295.09 -455.48,0.9 z"
         id="path71" />
      <path
         fill="none"
         fill-rule="evenodd"
         stroke-width="35"
         stroke-linejoin="round"
         stroke="#00ff00"
         stroke-opacity="1"
         d="m 2080.02,3469.83 605.95,-1.27 -174.34,-294.83 -512.62,1.01 z"
         id="path73" />
      <path
         fill="none"
         fill-rule="evenodd"
         stroke-width="40"
         stroke-linejoin="round"
         stroke="#00ff00"
         stroke-opacity="1"
         d="m 202.356,3877.79 697.793,-1.47 96.267,-404.2 -600.516,1.26 z"
         id="path75" />
      <path
         fill="none"
         fill-rule="evenodd"
         stroke-width="40"
         stroke-linejoin="round"
         stroke="#00ff00"
         stroke-opacity="1"
         d="m 900.149,3876.32 637.351,-1.34 3.49,-404.01 -544.574,1.15 z"
         id="path77" />
      <path
         fill="none"
         fill-rule="evenodd"
         stroke-width="40"
         stroke-linejoin="round"
         stroke="#00ff00"
         stroke-opacity="1"
         d="m 1537.5,3874.98 653.36,-1.38 -110.84,-403.77 -539.03,1.14 z"
         id="path79" />
      <path
         fill="none"
         fill-rule="evenodd"
         stroke-width="40"
         stroke-linejoin="round"
         stroke="#00ff00"
         stroke-opacity="1"
         d="m 2190.86,3873.6 733.69,-1.55 -238.58,-403.49 -605.95,1.27 z"
         id="path81" />
      <path
         fill="none"
         fill-rule="evenodd"
         stroke-width="35"
         stroke-linejoin="round"
         stroke="#00ff00"
         stroke-opacity="1"
         d="M 0,3474.21 395.9,3473.38 537.447,3177.62 7.52563e-7,3178.68"
         id="path83" />
      <path
         fill="none"
         fill-rule="evenodd"
         stroke-width="45"
         stroke-linejoin="round"
         stroke="#00ff00"
         stroke-opacity="1"
         d="M 2.00802e-5,4300.61 202.356,3877.79 0,3878.21"
         id="path85" />
      <path
         fill="none"
         fill-rule="evenodd"
         stroke-width="40"
         stroke-linejoin="round"
         stroke="#00ff00"
         stroke-opacity="1"
         d="M 0,3878.21 202.356,3877.79 395.9,3473.38 0,3474.21"
         id="path87" />
      <path
         fill="none"
         fill-rule="evenodd"
         stroke-width="45"
         stroke-linejoin="round"
         stroke="#00ff00"
         stroke-opacity="1"
         d="m 766.064,4439.31 766.586,-1.58 4.85,-562.75 -637.351,1.34 z"
         id="path89" />
      <path
         fill="none"
         fill-rule="evenodd"
         stroke-width="55"
         stroke-linejoin="round"
         stroke="#00ff00"
         stroke-opacity="1"
         d="m 1526.08,5200.89 6.57,-763.16 -766.586,1.58 -181.506,762.09 z"
         id="path91" />
      <path
         fill="none"
         fill-rule="evenodd"
         stroke-width="45"
         stroke-linejoin="round"
         stroke="#00ff00"
         stroke-opacity="1"
         d="m 1532.65,4437.73 812.61,-1.67 -154.4,-562.46 -653.36,1.38 z"
         id="path93" />
      <path
         fill="none"
         fill-rule="evenodd"
         stroke-width="55"
         stroke-linejoin="round"
         stroke="#00ff00"
         stroke-opacity="1"
         d="m 2555.06,5200.33 -209.8,-764.27 -812.61,1.67 -6.57,763.16 z"
         id="path95" />
      <path
         fill="none"
         fill-rule="evenodd"
         stroke-width="45"
         stroke-linejoin="round"
         stroke="#00ff00"
         stroke-opacity="1"
         d="m 2345.26,4436.06 911.68,-1.87 -332.39,-562.14 -733.69,1.55 z"
         id="path97" />
      <path
         fill="none"
         fill-rule="evenodd"
         stroke-width="55"
         stroke-linejoin="round"
         stroke="#00ff00"
         stroke-opacity="1"
         d="m 3709.58,5199.7 -452.64,-765.51 -911.68,1.87 209.8,764.27 z"
         id="path99" />
      <path
         fill="none"
         fill-rule="evenodd"
         stroke-width="10"
         stroke-linejoin="round"
         stroke="#00ff00"
         stroke-opacity="1"
         d="m 405.672,2735.36 -7.543,12.96 -177.695,183.43 435.121,-0.91 93.899,-196.2 z"
         id="path101" />
      <path
         fill="none"
         fill-rule="evenodd"
         stroke-width="20"
         stroke-linejoin="round"
         stroke="#00ff00"
         stroke-opacity="1"
         d="M 7.52563e-7,3178.68 537.447,3177.62 l 118.108,-246.78 -435.121,0.91 -8.268,8.54 L 0,3135"
         id="path103" />
      <path
         fill="none"
         fill-rule="evenodd"
         stroke-width="55"
         stroke-linejoin="round"
         stroke="#00ff00"
         stroke-opacity="1"
         d="m 4000,4432.66 -743.06,1.53 452.64,765.51 290.42,-0.16"
         id="path105" />
      <path
         fill="none"
         fill-rule="evenodd"
         stroke-width="45"
         stroke-linejoin="round"
         stroke="#00ff00"
         stroke-opacity="1"
         d="m 4000,4005.78 -146.38,-55 -9.86,-80.66 -919.21,1.93 332.39,562.14 743.06,-1.53"
         id="path107" />
      <path
         fill="none"
         fill-rule="evenodd"
         stroke-width="40"
         stroke-linejoin="round"
         stroke="#00ff00"
         stroke-opacity="1"
         d="m 3841.62,3849.81 v -281.95 l -60.97,-101.61 -1094.68,2.31 238.58,403.49 921.21,-1.93 z"
         id="path109" />
      <path
         fill="none"
         fill-rule="evenodd"
         stroke-width="35"
         stroke-linejoin="round"
         stroke="#00ff00"
         stroke-opacity="1"
         d="m 3780.65,3466.25 -118.99,-198.33 -363.47,-95.75 -786.56,1.56 174.34,294.83 z"
         id="path111" />
      <path
         fill="none"
         fill-rule="evenodd"
         stroke-width="20"
         stroke-linejoin="round"
         stroke="#00ff00"
         stroke-opacity="1"
         d="m 3321.18,3172.18 -265.69,-63.94 -205.68,-182.07 -483.92,1.06 145.74,246.5 z"
         id="path113" />
      <path
         fill="none"
         fill-rule="evenodd"
         stroke-width="55"
         stroke-linejoin="round"
         stroke="#00ff00"
         stroke-opacity="1"
         d="M 3.56038e-5,5201.72 584.558,5201.4 766.064,4439.31 2.24967e-5,4440.88"
         id="path115" />
      <path
         fill="none"
         fill-rule="evenodd"
         stroke-width="45"
         stroke-linejoin="round"
         stroke="#00ff00"
         stroke-opacity="1"
         d="M 2.24967e-5,4440.88 766.064,4439.31 900.149,3876.32 202.356,3877.79 2.00802e-5,4300.61"
         id="path117" />
    </g>
    <path
       fill="#00ff00"
       fill-opacity="0.152941"
       fill-rule="evenodd"
       stroke-width="0.000220118"
       stroke-linejoin="round"
       d="m 8.4540402,6.210453 0.3998322,0.1053262 0.1309592,0.21828 0.067103,0.1118302 v 0.3102998 l 0.00453,0.022364 -0.00221,-1.09e-5 0.010848,0.088784 0.161104,0.060522 V 8.441686 l -4.4023446,0.00241 3.3e-6,-2.2265331 v -0.048088 l 0.2335074,-0.2142956 0.00911,-0.00938 0.1955686,-0.2018805 0.0083,-0.014273 0.054175,-0.1498563 0.00118,-0.1344257 -0.00241,-0.090425 1.9596295,-0.004 0.1040062,0.090116 -0.00222,1.08e-5 0.1443309,0.1339639 0.1897414,0.1493605 0.2448369,0.2152531 h -0.00329 l 0.226358,0.200373 0.2924262,0.070371 z"
       id="path121" />
    <path
       fill="#00ffff"
       fill-opacity="0.603922"
       stroke-width="0.000220118"
       stroke-linejoin="round"
       d="M 6.4890175,7.7095858 7.6891424,7.1510704 7.4536166,7.0696267 6.173259,7.5739494 Z"
       id="path123" />
    <path
       fill="#00ffff"
       fill-opacity="0.45098"
       stroke-width="0.000220118"
       stroke-linejoin="round"
       d="M 6.1368624,5.3600178 6.4958079,5.6031047 6.5452464,5.5818273 6.1722459,5.3725066 Z"
       id="path125" />
    <path
       fill="#00ffff"
       fill-opacity="0.45098"
       stroke-width="0.000220118"
       stroke-linejoin="round"
       d="M 7.1583839,5.8768761 6.5446963,5.5814673 6.4957723,5.6038854 7.0664825,5.898887 Z"
       id="path127" />
    <path
       fill="#00ffff"
       fill-opacity="0.45098"
       stroke-width="0.000220118"
       stroke-linejoin="round"
       d="m 7.3959789,6.4311317 0.064241,0.6296905 0.2641415,0.063834 -0.1452777,-0.691169 z"
       id="path129" />
    <path
       fill="#00ffff"
       fill-opacity="1"
       stroke-width="0.000220118"
       stroke-linejoin="round"
       d="m 7.0635463,5.8657269 c 0.024322,-0.00666 0.063625,-0.00315 0.087783,0.00787 0.02416,0.010997 0.024028,0.025289 -2.96e-4,0.03194 -0.024322,0.00664 -0.063614,0.00311 -0.087772,-0.00788 -0.024171,-0.010998 -0.024036,-0.02529 2.846e-4,-0.031931 z"
       id="path131" />
    <path
       fill="#00ffff"
       fill-opacity="1"
       stroke-width="0.000220118"
       stroke-linejoin="round"
       d="m 6.522112,5.5771636 c 0.019724,8.362e-4 0.035408,0.00871 0.035019,0.017564 -3.698e-4,0.00886 -0.016674,0.015355 -0.036396,0.014514 -0.019723,-8.362e-4 -0.035408,-0.00871 -0.035019,-0.017564 3.699e-4,-0.00886 0.016674,-0.015356 0.036396,-0.014514 z"
       id="path133" />
    <path
       fill="#00ffff"
       fill-opacity="1"
       stroke-width="0.000220118"
       stroke-linejoin="round"
       d="m 6.1679317,5.3713759 c 0.00443,1.869e-4 0.00792,0.00197 0.00785,0.00393 -8.79e-5,0.00197 -0.00374,0.00345 -0.00816,0.00324 -0.00443,-1.868e-4 -0.00792,-0.00197 -0.00785,-0.00393 8.75e-5,-0.00197 0.00374,-0.00345 0.00816,-0.00324 z"
       id="path135" />
    <line
       fill="none"
       stroke-width="0.00550295"
       stroke-linejoin="round"
       stroke="#00ffff"
       stroke-opacity="1"
       x1="6.1685596"
       y1="5.3755879"
       x2="6.278892"
       y2="5.4444518"
       id="line137" />
    <line
       fill="none"
       stroke-width="0.00880472"
       stroke-linejoin="round"
       stroke="#00ffff"
       stroke-opacity="1"
       x1="6.2781558"
       y1="5.4433513"
       x2="6.4433861"
       y2="5.5453863"
       id="line139" />
    <line
       fill="none"
       stroke-width="0.0110059"
       stroke-linejoin="round"
       stroke="#00ffff"
       stroke-opacity="1"
       x1="6.4410424"
       y1="5.5438681"
       x2="6.5191836"
       y2="5.5922942"
       id="line141" />
    <path
       fill="#00ffff"
       fill-opacity="0.45098"
       stroke-width="0.000220118"
       stroke-linejoin="round"
       d="M 7.0564806,5.893968 7.3957147,6.4261243 7.5800631,6.4332806 7.1662642,5.8843408 Z"
       id="path143" />
    <path
       fill="#00ffff"
       fill-opacity="1"
       stroke-width="0.000220118"
       stroke-linejoin="round"
       d="m 7.4234604,6.4006568 c 0.036539,-0.00999 0.095598,-0.00468 0.1318947,0.011844 0.036298,0.016511 0.036111,0.037995 -4.407e-4,0.047974 -0.036539,0.01 -0.095597,0.00468 -0.1318943,-0.011829 -0.036307,-0.016511 -0.036111,-0.037995 4.438e-4,-0.047984 z"
       id="path145" />
    <path
       fill="#00ffff"
       fill-opacity="1"
       stroke-width="0.000220118"
       stroke-linejoin="round"
       d="m 6.1997392,7.5666854 c 0.083876,-0.022914 0.2194131,-0.010756 0.3027278,0.027165 0.083326,0.037905 0.082874,0.087221 -9.805e-4,0.110136 -0.083875,0.022905 -0.2194131,0.010755 -0.3027278,-0.027164 -0.083315,-0.037917 -0.082864,-0.087222 9.805e-4,-0.110137 z"
       id="path147" />
    <path
       fill="#00ffff"
       fill-opacity="1"
       stroke-width="0.000220118"
       stroke-linejoin="round"
       d="m 7.4665156,7.0614715 c 0.058387,-0.015947 0.1527286,-0.00747 0.2107297,0.018907 0.058002,0.026393 0.057681,0.060719 -6.886e-4,0.076667 -0.058375,0.015947 -0.1527287,0.00747 -0.2107297,-0.018907 -0.058001,-0.026393 -0.057681,-0.060707 6.886e-4,-0.076667 z"
       id="path149" />
    <line
       fill="none"
       stroke-width="0.0137573"
       stroke-linejoin="round"
       stroke="#00ffff"
       stroke-opacity="1"
       x1="6.5235868"
       y1="5.5950346"
       x2="6.7928233"
       y2="5.7282157"
       id="line151" />
    <line
       fill="none"
       stroke-width="0.0165089"
       stroke-linejoin="round"
       stroke="#00ffff"
       stroke-opacity="1"
       x1="6.7895212"
       y1="5.7271161"
       x2="6.9143939"
       y2="5.792788"
       id="line153" />
    <line
       fill="none"
       stroke-width="0.0192603"
       stroke-linejoin="round"
       stroke="#00ffff"
       stroke-opacity="1"
       x1="7.1184545"
       y1="5.8874378"
       x2="6.9089346"
       y2="5.7904"
       id="line155" />
    <line
       fill="none"
       stroke-width="0.0192603"
       stroke-linejoin="round"
       stroke="#00ffff"
       stroke-opacity="1"
       x1="7.1194"
       y1="5.8960228"
       x2="7.1601777"
       y2="5.9451199"
       id="line157" />
    <line
       fill="none"
       stroke-width="0.0220118"
       stroke-linejoin="round"
       stroke="#00ffff"
       stroke-opacity="1"
       x1="7.1579762"
       y1="5.9429193"
       x2="7.3562803"
       y2="6.2298307"
       id="line159" />
    <line
       fill="none"
       stroke-width="0.0275148"
       stroke-linejoin="round"
       stroke="#00ffff"
       stroke-opacity="1"
       x1="7.34304"
       y1="6.2095146"
       x2="7.4911022"
       y2="6.4169307"
       id="line161" />
    <line
       fill="none"
       stroke-width="0.0275148"
       stroke-linejoin="round"
       stroke="#00ffff"
       stroke-opacity="1"
       x1="7.4938202"
       y1="6.4413638"
       x2="7.5070271"
       y2="6.5352764"
       id="line163" />
    <line
       fill="none"
       stroke-width="0.0330176"
       stroke-linejoin="round"
       stroke="#00ffff"
       stroke-opacity="1"
       x1="7.5055637"
       y1="6.5265388"
       x2="7.5710597"
       y2="6.9827433"
       id="line165" />
    <line
       fill="none"
       stroke-width="0.0440236"
       stroke-linejoin="round"
       stroke="#00ffff"
       stroke-opacity="1"
       x1="7.5877337"
       y1="7.1039844"
       x2="7.5710816"
       y2="6.9778128"
       id="line167" />
    <line
       fill="none"
       stroke-width="0.0495263"
       stroke-linejoin="round"
       stroke="#00ffff"
       stroke-opacity="1"
       x1="7.2935686"
       y1="7.2320695"
       x2="7.5514593"
       y2="7.117774"
       id="line169" />
    <line
       fill="none"
       stroke-width="0.0605322"
       stroke-linejoin="round"
       stroke="#00ffff"
       stroke-opacity="1"
       x1="6.3316326"
       y1="7.6396947"
       x2="7.2979712"
       y2="7.2320695"
       id="line171" />
    <image
       x="4.7534451"
       y="3.5336807"
       width="4.4023519"
       height="6.6035275"
       xlink:href="abs_files/image1.png"
       id="image173" />
    <g
       id="g187"
       transform="matrix(0.00110059,0,0,0.00110059,4.823883,2.71908)">
      <line
         fill="none"
         stroke-width="20"
         stroke-linejoin="round"
         stroke="#ffffff"
         stroke-opacity="1"
         x1="1419.54"
         y1="4445.6699"
         x2="1742.87"
         y2="4513.6699"
         id="line175" />
      <path
         fill="#ffffff"
         fill-opacity="1"
         stroke-width="0.2"
         stroke-linejoin="round"
         d="m 1679.91,4529.8 98.68,-4.7 -47.85,-44.61 -9.85,25.01 -7.73,7.51 z"
         id="path177" />
      <line
         fill="none"
         stroke-width="20"
         stroke-linejoin="round"
         stroke="#ffffff"
         stroke-opacity="1"
         x1="1115.37"
         y1="4514.2598"
         x2="1426.37"
         y2="4444.2598"
         id="line179" />
      <path
         fill="#ffffff"
         fill-opacity="1"
         stroke-width="0.2"
         stroke-linejoin="round"
         d="m 1178.15,4527.84 -93.31,-5.04 40.09,-41.67 12.01,23.59 8.1,7.11 z"
         id="path181" />
      <line
         fill="none"
         stroke-width="20"
         stroke-linejoin="round"
         stroke="#ffffff"
         stroke-opacity="1"
         x1="1421.08"
         y1="4454.8701"
         x2="1431.08"
         y2="4125.8701"
         id="line183" />
      <path
         fill="#ffffff"
         fill-opacity="1"
         stroke-width="0.2"
         stroke-linejoin="round"
         d="m 1394.79,4146.81 36.26,-72.96 33.23,86.58 -30.21,-19.52 -10.58,-2.07 z"
         id="path185" />
    </g>
    <text
       xml:space="preserve"
       style="font-style:normal;font-weight:normal;font-size:0.147251px;line-height:1.25;font-family:sans-serif;fill:#ffffff;fill-opacity:1;stroke:none;stroke-width:0.0110439"
       x="6.1204062"
       y="7.4714794"
       id="text17270"><tspan
         sodipodi:role="line"
         id="tspan17268"
         style="font-size:0.147251px;fill:#ffffff;stroke-width:0.0110439"
         x="6.1204062"
         y="7.4714794">A</tspan></text>
    <text
       xml:space="preserve"
       style="font-style:normal;font-weight:normal;font-size:0.147251px;line-height:1.25;font-family:sans-serif;fill:#ffffff;fill-opacity:1;stroke:none;stroke-width:0.0110439"
       x="5.2431164"
       y="7.8834658"
       id="text17270-0"><tspan
         sodipodi:role="line"
         id="tspan17268-3"
         style="font-size:0.147251px;fill:#ffffff;stroke-width:0.0110439"
         x="5.2431164"
         y="7.8834658">B</tspan></text>
  </g>
</svg>
