<?xml version="1.0" encoding="UTF-8" standalone="no"?>
<svg
   version="1.1"
   width="228.48"
   height="171.40054"
   viewBox="0 0 228.48 171.40054"
   enable-background="new 0 0 3756.43 2817.32"
   xml:space="preserve"
   id="svg85"
   sodipodi:docname="_GOPR0985.svg"
   inkscape:version="1.1.2 (0a00cf5339, 2022-02-04)"
   xmlns:inkscape="http://www.inkscape.org/namespaces/inkscape"
   xmlns:sodipodi="http://sodipodi.sourceforge.net/DTD/sodipodi-0.dtd"
   xmlns:xlink="http://www.w3.org/1999/xlink"
   xmlns="http://www.w3.org/2000/svg"
   xmlns:svg="http://www.w3.org/2000/svg"><defs
   id="defs89"><linearGradient
     id="linearGradient1415"
     gradientUnits="userSpaceOnUse"
     x1="356.7001"
     y1="2287.4065"
     x2="1634.3486"
     y2="2287.4065"
     gradientTransform="scale(0.95629348,1.0457041)"><stop
       offset="0"
       stop-color="#FFFFFF"
       stop-opacity="0"
       id="stop2-3" /><stop
       offset="0.577586"
       stop-color="#7FE37F"
       stop-opacity="0.254902"
       id="stop4-2" /><stop
       offset="1"
       stop-color="#00C800"
       stop-opacity="0.501961"
       id="stop6-1" /></linearGradient></defs><sodipodi:namedview
   id="namedview87"
   pagecolor="#ffffff"
   bordercolor="#666666"
   borderopacity="1.0"
   inkscape:pageshadow="2"
   inkscape:pageopacity="0.0"
   inkscape:pagecheckerboard="0"
   showgrid="false"
   inkscape:zoom="2.9917484"
   inkscape:cx="152.08498"
   inkscape:cy="79.217891"
   inkscape:window-width="1920"
   inkscape:window-height="1103"
   inkscape:window-x="1920"
   inkscape:window-y="0"
   inkscape:window-maximized="1"
   inkscape:current-layer="svg85" />
	<image
   width="228.48"
   height="171.40054"
   preserveAspectRatio="none"
   xlink:href="_GOPR0985.jpg"
   id="image1003"
   x="0"
   y="0" /><g
   id="g83"
   transform="matrix(0.06080909,0,0,0.06080909,-0.04909111,0.15592418)">
		<linearGradient
   id="SVGID_Fill1_"
   gradientUnits="userSpaceOnUse"
   x1="356.7001"
   y1="2287.4065"
   x2="1559.0507"
   y2="1624.0732"
   gradientTransform="scale(0.95629348,1.0457041)">
			<stop
   offset="0"
   stop-color="#FFFFFF"
   stop-opacity="0"
   id="stop2" />
			<stop
   offset="0.577586"
   stop-color="#7FE37F"
   stop-opacity="0.254902"
   id="stop4" />
			<stop
   offset="1"
   stop-color="#00C800"
   stop-opacity="0.501961"
   id="stop6" />
		</linearGradient>
		<path
   fill="url(#SVGID_Fill1_)"
   fill-rule="evenodd"
   stroke-width="0.2"
   stroke-linejoin="round"
   d="m 397.285,1458.5 1107.775,235.82 -327.81,1006.89 -248.375,-7.45 C 660.467,2540.86 257.425,2184.16 397.285,1458.5 Z"
   id="path9"
   style="fill:url(#SVGID_Fill1_)" />
		<path
   fill="none"
   fill-rule="evenodd"
   stroke-width="6.66667"
   stroke-linejoin="round"
   stroke="#ffffff"
   stroke-opacity="0.701961"
   d="m 981.59,2692.95 c -0.315,9.88 -0.553,19.85 -0.711,29.91"
   id="path11"
   style="stroke-width:8.30467945;stroke-miterlimit:4;stroke-dasharray:none" />
		<path
   fill="none"
   stroke-width="6.66667"
   stroke-linejoin="round"
   stroke="#000000"
   stroke-opacity="1"
   d="m 1496.94,1697.62 c 0,0 -530.601,283.98 -640.983,950.17"
   id="path13"
   style="stroke-width:8.30467945;stroke-miterlimit:4;stroke-dasharray:none" />
		
		<path
   fill="none"
   stroke-width="6.66667"
   stroke-linejoin="round"
   stroke="#000000"
   stroke-opacity="1"
   d="m 1511.65,1688.59 c 0,0 -576.689,290.64 -832.067,824.48"
   id="path17"
   style="stroke-width:8.30467945;stroke-miterlimit:4;stroke-dasharray:none" />
		<path
   fill="none"
   stroke-width="6.66667"
   stroke-linejoin="round"
   stroke="#000000"
   stroke-opacity="1"
   d="m 1499.94,1695.41 c 0,0 -744.25,421.65 -912.58,709.88"
   id="path19"
   style="stroke-width:8.30467945;stroke-miterlimit:4;stroke-dasharray:none" />
		<path
   fill="none"
   stroke-width="6.66667"
   stroke-linejoin="round"
   stroke="#000000"
   stroke-opacity="1"
   d="m 1494.58,1691.73 c 0,0 -365.21,268.16 -946.998,44.11"
   id="path21"
   style="stroke-width:8.30467945;stroke-miterlimit:4;stroke-dasharray:none" />
		<path
   fill="none"
   stroke-width="6.66667"
   stroke-linejoin="round"
   stroke="#000000"
   stroke-opacity="1"
   d="m 1490.91,1698.3 c 0,0 -396.11,250.14 -924.725,149.16"
   id="path23"
   style="stroke-width:8.30467945;stroke-miterlimit:4;stroke-dasharray:none" />
		<path
   fill="none"
   stroke-width="6.66667"
   stroke-linejoin="round"
   stroke="#000000"
   stroke-opacity="1"
   d="m 1504.06,1693.79 c 0,0 -434.11,272.37 -937.376,234.56"
   id="path25"
   style="stroke-width:8.30467945;stroke-miterlimit:4;stroke-dasharray:none" />
		<path
   fill="none"
   stroke-width="6.66667"
   stroke-linejoin="round"
   stroke="#000000"
   stroke-opacity="1"
   d="m 1506.02,1689.96 c 0,0 -432.3,288.11 -947.374,317.67"
   id="path27"
   style="stroke-width:8.30467945;stroke-miterlimit:4;stroke-dasharray:none" />
		<path
   fill="none"
   stroke-width="6.66667"
   stroke-linejoin="round"
   stroke="#ffffff"
   stroke-opacity="0.701961"
   d="m 1125.99,2698.55 c 4.9,30.66 10.7,62.22 17.47,94.68"
   id="path29"
   style="stroke-width:8.30467945;stroke-miterlimit:4;stroke-dasharray:none" />
		<path
   fill="none"
   stroke-width="6.66667"
   stroke-linejoin="round"
   stroke="#000000"
   stroke-opacity="1"
   d="m 1501.73,1681.47 c 0,0 -324.37,294.2 -870.332,-48.46 l -79.642,-54.36 c -49.598,-34.59 -100.71,-75.16 -153.354,-121.49"
   id="path31"
   style="stroke-width:8.30467945;stroke-miterlimit:4;stroke-dasharray:none" />
		<path
   fill="none"
   stroke-width="6.66667"
   stroke-linejoin="round"
   stroke="#000000"
   stroke-opacity="1"
   d="m 1506.89,1691.45 c 0,0 -434.64,232.72 -654.547,672.95 l -48.911,114.13 c -14.708,36.03 -26.245,71.44 -36.127,107.92"
   id="path33"
   style="stroke-width:8.30467945;stroke-miterlimit:4;stroke-dasharray:none" />
		<path
   fill="none"
   stroke-width="6.66667"
   stroke-linejoin="round"
   stroke="#000000"
   stroke-opacity="1"
   d="M 547.582,1735.84 C 491.02,1714.05 432.41,1687.62 371.89,1655.83"
   id="path35"
   style="stroke-width:8.30467945;stroke-miterlimit:4;stroke-dasharray:none" />
		<path
   fill="none"
   stroke-width="6.66667"
   stroke-linejoin="round"
   stroke="#ff0000"
   stroke-opacity="1"
   d="m 1501.19,1698.89 c 0,0 -504.773,188.29 -375.2,999.66"
   id="path37"
   style="stroke-width:8.30467945;stroke-miterlimit:4;stroke-dasharray:none" />
		<path
   style="fill:none;stroke:#000000;stroke-width:8.30468;stroke-linecap:butt;stroke-linejoin:miter;stroke-miterlimit:4;stroke-dasharray:none;stroke-opacity:1"
   d="M 750.40787,2128.655 1490.4083,1699.3895"
   id="path1389"
   sodipodi:nodetypes="cc" /><path
   style="fill:none;stroke:#000000;stroke-width:8.30468;stroke-linecap:butt;stroke-linejoin:miter;stroke-miterlimit:4;stroke-dasharray:none;stroke-opacity:1"
   d="m 496.62929,2275.5817 144.02392,-84.3844"
   id="path1389-6"
   sodipodi:nodetypes="cc" /><path
   fill="none"
   fill-rule="evenodd"
   stroke-width="6.66667"
   stroke-linejoin="round"
   stroke="#ff0000"
   stroke-opacity="1"
   d="m 1504.46,1697.67 c 0,0 -498.24,223.29 -522.87,995.28"
   id="path39"
   style="stroke-width:8.30467945;stroke-miterlimit:4;stroke-dasharray:none" />
		<path
   fill="none"
   stroke-width="6.66667"
   stroke-linejoin="round"
   stroke="#000000"
   stroke-opacity="1"
   d="m 566.185,1847.46 c -63.416,-12.12 -128.739,-29.28 -195.514,-52.54"
   id="path41"
   style="stroke-width:8.30467945;stroke-miterlimit:4;stroke-dasharray:none" />
		<path
   fill="none"
   stroke-width="6.66667"
   stroke-linejoin="round"
   stroke="#000000"
   stroke-opacity="1"
   d="m 566.684,1928.35 c -61.805,-4.64 -124.654,-13.92 -187.871,-28.91"
   id="path43"
   style="stroke-width:8.30467945;stroke-miterlimit:4;stroke-dasharray:none" />
		<path
   fill="none"
   stroke-width="6.66667"
   stroke-linejoin="round"
   stroke="#000000"
   stroke-opacity="1"
   d="m 558.646,2007.63 c -52.529,3.02 -105.919,3.34 -159.799,0.4"
   id="path45"
   style="stroke-width:8.30467945;stroke-miterlimit:4;stroke-dasharray:none" />
		<path
   fill="none"
   stroke-width="6.66667"
   stroke-linejoin="round"
   stroke="#00c800"
   stroke-opacity="1"
   d="m 489.79085,2133.0511 c -30.374,5.69 -25.38685,5.7189 -51.70585,6.7889"
   id="path47"
   style="stroke:#00ffff;stroke-width:13.2382;stroke-miterlimit:4;stroke-dasharray:none;stroke-opacity:1"
   sodipodi:nodetypes="cc" />
		<path
   fill="none"
   stroke-width="6.66667"
   stroke-linejoin="round"
   stroke="#00c800"
   stroke-opacity="1"
   d="m 1494.31,1696.78 c 0,0 -512.157,306.46 -875.377,409.83"
   id="path49"
   style="stroke:#00ffff;stroke-opacity:1;stroke-width:13.23815239;stroke-miterlimit:4;stroke-dasharray:none" />
		<path
   fill="none"
   stroke-width="6.66583"
   stroke-linejoin="round"
   stroke="#000000"
   stroke-opacity="1"
   d="m 920.168,2689.78 c 0,0 -705.891,-338.92 -522.601,-1230.51"
   id="path51"
   style="stroke-width:9.94917043;stroke-miterlimit:4;stroke-dasharray:19.89834086,19.89834086;stroke-dashoffset:0" />
		<path
   fill="#ff0000"
   fill-opacity="1"
   stroke-width="0.2"
   stroke-linejoin="round"
   d="m 913.456,2678.52 c 7.636,-4.45 17.432,-1.86 21.878,5.77 4.447,7.64 1.862,17.44 -5.774,21.88 -7.636,4.45 -17.431,1.86 -21.878,-5.77 -4.447,-7.64 -1.862,-17.43 5.774,-21.88 z"
   id="path53" />
		<path
   fill="#ff0000"
   fill-opacity="1"
   stroke-width="0.2"
   stroke-linejoin="round"
   d="m 1166.78,2682.13 c 7.64,-4.44 17.44,-1.86 21.88,5.78 4.45,7.63 1.86,17.43 -5.77,21.88 -7.64,4.44 -17.43,1.86 -21.88,-5.78 -4.45,-7.63 -1.86,-17.43 5.77,-21.88 z"
   id="path55" />
		<path
   fill="#ff0000"
   fill-opacity="1"
   stroke-width="0.2"
   stroke-linejoin="round"
   d="m 393.13,1446.28 c 7.636,-4.44 17.432,-1.86 21.878,5.78 4.447,7.63 1.862,17.43 -5.774,21.88 -7.636,4.44 -17.432,1.86 -21.878,-5.78 -4.447,-7.63 -1.862,-17.43 5.774,-21.88 z"
   id="path57" />
		<path
   fill="#ff0000"
   fill-opacity="1"
   stroke-width="0.297927"
   stroke-linejoin="round"
   d="m 1480.6034,1644.9614 c 23.8644,-13.8981 54.4918,-5.8095 68.3903,18.054 13.8985,23.8636 5.8246,54.49 -18.0547,68.388 -23.8643,13.913 -54.4917,5.8244 -68.3902,-18.054 -13.8986,-23.8636 -5.8246,-54.49 18.0546,-68.388 z"
   id="path59"
   style="fill:#00ffff;fill-opacity:1" />
		<path
   fill="#00c800"
   fill-opacity="1"
   stroke-linejoin="round"
   stroke="#00c800"
   stroke-opacity="1"
   d="m 439.568,2124.43 c 8.882,0 16.083,7.2 16.083,16.09 0,8.88 -7.201,16.08 -16.083,16.08 -8.882,0 -16.083,-7.2 -16.083,-16.08 0,-8.89 7.201,-16.09 16.083,-16.09 z"
   id="path61"
   style="stroke:#00ffff;stroke-opacity:1;fill:#00ffff;fill-opacity:1" />
		
		<text
   xml:space="preserve"
   id="text69"
   x="1218"
   y="2747">			 <tspan
   style="font-size:94.6667px;font-family:'Segoe UI'"
   letter-spacing="0em"
   fill="#000000"
   fill-opacity="1"
   stroke-width="0.2"
   stroke-linejoin="round"
   id="tspan67">o1</tspan>		</text><text
   xml:space="preserve"
   id="text69-3"
   x="199.69345"
   y="1420.4901"><tspan
     style="font-style:normal;font-variant:normal;font-weight:normal;font-stretch:normal;font-size:96px;font-family:sans-serif;-inkscape-font-specification:'sans-serif, Normal';font-variant-ligatures:normal;font-variant-caps:normal;font-variant-numeric:normal;font-variant-east-asian:normal"
     id="tspan13937">			v1		</tspan></text><text
   xml:space="preserve"
   id="text69-3-0"
   x="1054.1378"
   y="1679.7971"><tspan
     style="font-style:normal;font-variant:normal;font-weight:normal;font-stretch:normal;font-size:96px;font-family:sans-serif;-inkscape-font-specification:'sans-serif, Normal';font-variant-ligatures:normal;font-variant-caps:normal;font-variant-numeric:normal;font-variant-east-asian:normal"
     id="tspan13937-2">			p(t1)		</tspan></text>
		
		<text
   xml:space="preserve"
   id="text77"
   x="749"
   y="2747">			 <tspan
   style="font-size:96px;font-family:'Segoe UI'"
   letter-spacing="0em"
   fill="#000000"
   fill-opacity="1"
   stroke-width="0.2"
   stroke-linejoin="round"
   id="tspan75">o2</tspan><tspan
   style="font-size:96px"
   id="tspan31630">	</tspan>	</text>
		<text
   xml:space="preserve"
   id="text81"
   x="500.91983"
   y="2152.9067">			 <tspan
   style="font-size:96px;font-family:'Segoe UI'"
   letter-spacing="0em"
   fill="#000000"
   fill-opacity="1"
   stroke-width="0.2"
   stroke-linejoin="round"
   id="tspan79">h1</tspan>		</text>
	</g>
</svg>
